<svg width="400" height="300" viewBox="0 0 400 300" fill="none" xmlns="http://www.w3.org/2000/svg">
  <!-- Background -->
  <rect width="400" height="300" fill="#f8fafc"/>
  
  <!-- Color palette card -->
  <rect x="50" y="50" width="300" height="200" rx="16" fill="white" stroke="#e2e8f0" stroke-width="2"/>
  
  <!-- Header -->
  <rect x="50" y="50" width="300" height="60" rx="16" fill="#8b5cf6"/>
  <text x="200" y="85" fill="white" font-family="Arial, sans-serif" font-size="18" font-weight="bold" text-anchor="middle">Color Palette Generator</text>
  
  <!-- Color palette -->
  <rect x="70" y="130" width="50" height="60" rx="8" fill="#FF6B6B"/>
  <rect x="130" y="130" width="50" height="60" rx="8" fill="#4ECDC4"/>
  <rect x="190" y="130" width="50" height="60" rx="8" fill="#45B7D1"/>
  <rect x="250" y="130" width="50" height="60" rx="8" fill="#96CEB4"/>
  <rect x="310" y="130" width="50" height="60" rx="8" fill="#FFEAA7"/>
  
  <!-- Color codes -->
  <text x="95" y="210" fill="#374151" font-family="monospace" font-size="10" text-anchor="middle">#FF6B6B</text>
  <text x="155" y="210" fill="#374151" font-family="monospace" font-size="10" text-anchor="middle">#4ECDC4</text>
  <text x="215" y="210" fill="#374151" font-family="monospace" font-size="10" text-anchor="middle">#45B7D1</text>
  <text x="275" y="210" fill="#374151" font-family="monospace" font-size="10" text-anchor="middle">#96CEB4</text>
  <text x="335" y="210" fill="#374151" font-family="monospace" font-size="10" text-anchor="middle">#FFEAA7</text>
  
  <!-- Generate button -->
  <rect x="150" y="230" width="100" height="30" rx="15" fill="#8b5cf6"/>
  <text x="200" y="250" fill="white" font-family="Arial, sans-serif" font-size="12" font-weight="bold" text-anchor="middle">Generate</text>
  
  <!-- Palette icon -->
  <circle cx="200" cy="100" r="15" fill="#fbbf24"/>
  <circle cx="185" cy="85" r="8" fill="#ef4444"/>
  <circle cx="215" cy="85" r="8" fill="#3b82f6"/>
  <circle cx="185" cy="115" r="8" fill="#10b981"/>
  <circle cx="215" cy="115" r="8" fill="#8b5cf6"/>
</svg> 